<svg width="30" height="30" viewBox="0 0 30 30" fill="none" xmlns="http://www.w3.org/2000/svg">
  <path
    d="M21.5651 21.1028C21.6853 21.5517 22.3216 21.5517 22.4419 21.1028L25.9013 8.17939C26.0606 7.58434 25.6126 7 24.9972 7H22.8643C22.4406 7 22.0698 7.28482 21.9601 7.69441L20.0093 14.9822C19.9823 15.0832 19.9823 15.1897 20.0093 15.2907L21.5651 21.1028Z"
    fill="#0364ff" />
  <path
    d="M9.47486 14.9727C9.50192 15.0738 9.50192 15.1802 9.47486 15.2813L7.91903 21.0933C7.79886 21.5422 7.1625 21.5422 7.04233 21.0933L3.58539 8.17939C3.4261 7.58434 3.87404 7 4.48949 7H6.62244C7.04607 7 7.41689 7.28482 7.52653 7.69441L9.47486 14.9727Z"
    fill="#0364ff" />
  <path
    d="M12.3912 23.9436C12.2853 24.3403 11.9272 24.6162 11.5181 24.6162H9.33533C8.74098 24.6162 8.30838 24.0501 8.46221 23.4737L12.6625 7.73569C12.7783 7.30174 13.17 7 13.6175 7H16.1563C16.6037 7 16.9954 7.30174 17.1113 7.73569L21.3116 23.4737C21.4654 24.0501 21.0328 24.6162 20.4384 24.6162H18.2557C17.8466 24.6162 17.4884 24.3403 17.3825 23.9436L15.3098 16.1772C15.1938 15.7429 14.5799 15.7429 14.464 16.1772L12.3912 23.9436Z"
    fill="#0364ff" />
  <path
    d="M14.1203 22.3066C13.964 22.3066 13.8503 22.1655 13.8908 22.0218L14.6573 19.2976C14.7202 19.074 15.0533 19.074 15.1163 19.2976L15.8828 22.0218C15.9233 22.1655 15.8096 22.3066 15.6534 22.3066H14.1203Z"
    fill="#0364ff" />
</svg>